# xmcd CD database file
#
# Track frame offsets:
#	150
#	18640
#	37220
#	52050
#	74657
#	89619
#	105877
#	122591
#	136300
#	153102
#	180597
#	203638
#	225731
#	253430
#	267692
#	282572
#	295716
#	317224
#
# Disc length: 4384 seconds
#
# Revision: 2
# Processed by: cddbd v1.5.2PL0 Copyright (c) Steve Scherf et al.
# Submitted via: CDex 1.51
#
DISCID=19111e12
DTITLE=Wiesbadener Juristenband - Best of 35 Jahre
DYEAR=2006
DGENRE=Jazz
TTITLE0=Some Of These Days
TTITLE1=I Can't Give You Anything But Love
TTITLE2=Love Is Just Around The Corner
TTITLE3=Makin' Whoopee
TTITLE4=Bourbon Street Parade
TTITLE5=Basin Street Blues
TTITLE6=Margie
TTITLE7=Mood Indigo
TTITLE8=Honeysuckle Rose
TTITLE9=It Had To Be You
TTITLE10=Bill Bailey
TTITLE11=Sweet Georgia Brown
TTITLE12=Do You Know What It Means
TTITLE13=Lady Be Good
TTITLE14=Savoy Blues
TTITLE15=Indiana
TTITLE16=Georgia On My Mind
TTITLE17=Oh When The Saints
EXTD=YEAR: 2006
EXTT0=
EXTT1=
EXTT2=
EXTT3=
EXTT4=
EXTT5=
EXTT6=
EXTT7=
EXTT8=
EXTT9=
EXTT10=
EXTT11=
EXTT12=
EXTT13=
EXTT14=
EXTT15=
EXTT16=
EXTT17=
PLAYORDER=
